<?xml version="1.0" encoding="utf-8"?>
<!-- Generator: Adobe Illustrator 16.0.0, SVG Export Plug-In . SVG Version: 6.00 Build 0)  -->
<!DOCTYPE svg PUBLIC "-//W3C//DTD SVG 1.1//EN" "http://www.w3.org/Graphics/SVG/1.1/DTD/svg11.dtd">
<svg version="1.1" id="Logo" xmlns="http://www.w3.org/2000/svg" xmlns:xlink="http://www.w3.org/1999/xlink" x="0px" y="0px"
	 width="298px" height="276px" viewBox="0 0 298 276" enable-background="new 0 0 298 276" xml:space="preserve">
<g>
	<g>
		<path fill="#FFC20E" d="M124.98,82.968l-11.402,88.648c-24.298-3.318-41.425-25.619-38.29-49.984
			C78.428,97.262,100.643,80.027,124.98,82.968z"/>
		<path fill="#FFC20E" d="M64.865,120.29l-13.01-13.911l18.695-4.111L63.122,84.83l19.025,2.446l-0.936-18.874l17.047,8.711
			l5.685-18.021l13.011,13.907l11.167-14.437l-2.665,20.727c-26.777-3.26-51.181,15.379-54.577,41.777
			c-3.397,26.392,15.492,50.599,42.226,54.229l-2.667,20.725l-7.148-16.798l-16.112,10.164l-0.938-18.873l-18.691,4.112l5.68-18.023
			l-19.021-2.448l11.595-14.988l-17.044-8.713L64.865,120.29z"/>
	</g>
	<g>
		<path opacity="0.91" fill="#00AEEF" d="M121.099,159.314c2.827,0.711,5.844,1.482,9.074,2.312
			c-0.802,6.165-1.586,12.328-2.385,18.483c-3.146-1.471-6.084-2.848-8.823-4.132C119.675,170.425,120.396,164.869,121.099,159.314z
			"/>
		<path opacity="0.91" fill="#00AEEF" d="M143.256,164.963c-0.909,7.035-1.825,14.071-2.733,21.114
			c-4.084-1.915-7.852-3.682-11.352-5.317c0.8-6.261,1.616-12.517,2.418-18.773C135.18,162.902,139.053,163.89,143.256,164.963z"/>
		<path opacity="0.91" fill="#00AEEF" d="M160.664,169.402c-1.061,8.206-2.122,16.41-3.181,24.612
			c-5.517-2.581-10.547-4.939-15.149-7.092c0.926-7.166,1.851-14.322,2.772-21.492C149.83,166.644,155,167.957,160.664,169.402z"/>
		<path opacity="0.91" fill="#00AEEF" d="M185.001,175.613c-1.28,9.831-2.546,19.665-3.827,29.494
			c-7.856-3.684-14.889-6.976-21.229-9.945c1.076-8.366,2.164-16.738,3.245-25.113C169.705,171.714,176.933,173.553,185.001,175.613
			z"/>
		<path opacity="0.91" fill="#00AEEF" d="M221.389,184.9c-1.597,12.268-3.198,24.527-4.799,36.782
			c-12.057-5.646-22.59-10.578-31.865-14.918c1.301-10.072,2.609-20.141,3.918-30.226
			C198.177,178.972,208.998,181.739,221.389,184.9z"/>
		<path opacity="0.91" fill="#00AEEF" d="M130.501,159.057c-3.243-0.743-6.275-1.422-9.095-2.066
			c0.709-5.555,1.423-11.114,2.139-16.675c2.897,0.072,6.002,0.151,9.333,0.237C132.089,146.72,131.291,152.893,130.501,159.057z"/>
		<path opacity="0.91" fill="#00AEEF" d="M131.924,159.377c0.803-6.255,1.617-12.528,2.417-18.789
			c3.694,0.096,7.683,0.201,12.017,0.304c-0.915,7.05-1.827,14.095-2.731,21.136C139.417,161.069,135.522,160.19,131.924,159.377z"
			/>
		<path opacity="0.91" fill="#00AEEF" d="M145.489,162.448c0.924-7.166,1.85-14.332,2.777-21.506
			c4.869,0.123,10.189,0.257,16.024,0.409c-1.057,8.212-2.12,16.422-3.184,24.638C155.421,164.698,150.241,163.523,145.489,162.448z
			"/>
		<path opacity="0.91" fill="#00AEEF" d="M164.051,165.783c0.927-7.17,1.64-17.402,2.567-24.574
			c4.868,0.119,16.994,0.021,22.832,0.166c-1.06,8.218-2.725,21.114-3.789,29.33C179.97,169.416,168.804,166.858,164.051,165.783z"
			/>
		<path opacity="0.91" fill="#00AEEF" d="M193.117,142.078c9.821,0.253,20.972,0.533,33.742,0.861
			c-1.597,12.288-3.198,24.565-4.803,36.843c-12.435-2.815-23.303-5.275-32.866-7.441
			C190.498,162.26,191.806,152.176,193.117,142.078z"/>
		<path opacity="0.91" fill="#00AEEF" d="M133.209,137.983c-3.346,0-6.451,0.012-9.37,0.016c0.724-5.563,1.432-11.13,2.152-16.696
			c2.981-0.57,6.179-1.186,9.606-1.839C134.796,125.633,134.009,131.808,133.209,137.983z"/>
		<path opacity="0.91" fill="#00AEEF" d="M134.678,137.976c0.805-6.266,1.617-12.53,2.422-18.798
			c3.803-0.73,7.916-1.518,12.356-2.371c-0.907,7.048-1.819,14.101-2.725,21.153C142.395,137.964,138.388,137.968,134.678,137.976z"
			/>
		<path opacity="0.91" fill="#00AEEF" d="M167.922,113.266c-1.062,8.223-2.125,16.446-3.184,24.66
			c-5.859,0.008-11.201,0.016-16.088,0.032c0.923-7.179,1.848-14.354,2.774-21.528C156.44,115.465,161.911,114.418,167.922,113.266z
			"/>
		<path opacity="0.91" fill="#00AEEF" d="M167.347,137.924c1.086-8.392,2.167-16.777,3.254-25.174
			c6.906-1.318,14.569-2.793,23.124-4.426c-1.275,9.853-2.553,19.706-3.829,29.557C181.554,137.896,174.08,137.912,167.347,137.924z
			"/>
		<path opacity="0.91" fill="#00AEEF" d="M197.593,107.582c10.116-1.941,21.595-4.143,34.75-6.665
			c-1.608,12.306-3.206,24.606-4.811,36.905c-12.822,0.018-24.01,0.035-33.87,0.055
			C194.973,127.783,196.283,117.684,197.593,107.582z"/>
		<path opacity="0.91" fill="#00AEEF" d="M135.847,116.895c-2.735,0.598-7.172,1.635-9.586,2.156
			c0.651-5.008,1.541-11.826,2.18-16.834c2.471-0.98,6.971-2.782,9.774-3.896C137.51,103.813,136.55,111.406,135.847,116.895z"/>
		<path opacity="0.91" fill="#00AEEF" d="M152.566,92.695c-0.911,7.059-1.819,14.115-2.727,21.171
			c-4.471,0.968-8.586,1.868-12.403,2.696c0.802-6.271,1.617-12.543,2.423-18.82C143.772,96.186,147.994,94.515,152.566,92.695z"/>
		<path opacity="0.91" fill="#00AEEF" d="M171.56,85.151c-1.068,8.231-2.13,16.463-3.192,24.687
			c-6.031,1.311-11.528,2.509-16.556,3.6c0.923-7.178,1.85-14.357,2.778-21.541C159.749,89.844,165.375,87.613,171.56,85.151z"/>
		<path opacity="0.91" fill="#00AEEF" d="M198.101,74.613c-1.281,9.87-2.553,19.736-3.841,29.602
			c-8.585,1.865-16.276,3.533-23.207,5.041c1.09-8.396,2.171-16.791,3.258-25.195C181.416,81.242,189.3,78.11,198.101,74.613z"/>
		<path opacity="0.91" fill="#00AEEF" d="M202.078,73.034c10.406-4.132,22.22-8.823,35.751-14.196
			c-1.613,12.326-3.211,24.637-4.818,36.949c-13.198,2.869-24.72,5.375-34.871,7.584C199.458,93.262,200.764,83.147,202.078,73.034z
			"/>
		<path opacity="0.91" fill="#00AEEF" d="M128.735,99.961c0.71-5.57,1.436-11.142,2.147-16.713c3.148-1.869,6.525-3.871,10.151-6.01
			c-0.801,6.184-1.59,12.367-2.395,18.543C135.11,97.274,131.81,98.666,128.735,99.961z"/>
		<path opacity="0.91" fill="#00AEEF" d="M140.195,95.132c0.807-6.275,1.623-12.554,2.425-18.839
			c4.017-2.375,8.358-4.943,13.059-7.727c-0.906,7.064-1.815,14.127-2.734,21.189C148.357,91.688,144.112,93.473,140.195,95.132z"/>
		<path opacity="0.91" fill="#00AEEF" d="M154.977,88.902c0.927-7.187,1.854-14.376,2.78-21.563
			c5.297-3.136,11.089-6.565,17.442-10.321c-1.065,8.233-2.132,16.471-3.196,24.707C165.801,84.338,160.148,86.716,154.977,88.902z"
			/>
		<path opacity="0.91" fill="#00AEEF" d="M174.769,80.557c1.085-8.404,2.173-16.808,3.263-25.215
			c7.293-4.322,15.398-9.121,24.444-14.478c-1.282,9.88-2.564,19.763-3.844,29.634C189.804,74.219,181.89,77.555,174.769,80.557z"/>
	</g>
</g>
<text transform="matrix(0.6006 0 0 1 37.146 247.1953)" font-family="'CasablancaHeavySFBold'" font-size="24.4134">Sentimental Energy Company Ltd</text>
</svg>
